<svg xmlns="http://www.w3.org/2000/svg" viewBox="0 0 378 378"><path d="M189,0C84.79,0,0,84.79,0,189S84.79,378,189,378s189-84.79,189-189S293.21,0,189,0ZM62.11,71a173.69,173.69,0,0,1,48.69-36.71l22.06-11.2L118.39,43.19a166.74,166.74,0,0,0-9.66,15.06A204.2,204.2,0,0,0,96.16,84.79l-2,5L89,88.39c-8.19-2.25-16.41-4.81-24.44-7.6l-8.69-3ZM16.45,172.51a171,171,0,0,1,24.73-74l2.59-4.22,4.63,1.74c11.18,4.2,22.65,7.94,34.09,11.13l5.64,1.57-1.43,5.68a299.76,299.76,0,0,0-8.57,58.91l-.27,5.71h-62Zm32,109.42-4.63,1.74-2.59-4.22a171,171,0,0,1-24.73-74l-.62-6.57h62l.27,5.71a299.92,299.92,0,0,0,8.57,58.91l1.43,5.68-5.64,1.57C71.07,274,59.6,277.72,48.41,281.92Zm62.4,61.75A173.7,173.7,0,0,1,62.11,307l-6.27-6.74,8.69-3c8.06-2.8,16.29-5.36,24.44-7.6l5.21-1.43,2,5a204.33,204.33,0,0,0,12.57,26.55,166.51,166.51,0,0,0,9.66,15.06l14.49,20.06Zm68.27,13.06-8.11-3c-21.55-8.08-40.9-30.53-54.48-63.21l-2.85-6.86,7.3-1.35a376.82,376.82,0,0,1,51.88-5.89l6.26-.27Zm0-100.51-5.76.23a396.4,396.4,0,0,0-60.2,7.08l-5.57,1.09-1.4-5.5a280.69,280.69,0,0,1-8.09-53.87l-.34-6.33h81.37Zm0-77.14H97.71l.34-6.32a280.65,280.65,0,0,1,8.09-53.87l1.4-5.5,5.57,1.09a396.42,396.42,0,0,0,60.2,7.08l5.76.23Zm0-77.19-6.26-.27a376.78,376.78,0,0,1-51.88-5.89l-7.3-1.35,2.85-6.86C130.06,54.84,149.41,32.4,171,24.31l8.11-3Zm150.52-5.81,4.63-1.74,2.59,4.22a171,171,0,0,1,24.73,73.95l.62,6.57h-62l-.27-5.71a299.93,299.93,0,0,0-8.57-58.9l-1.43-5.68,5.64-1.57C307,104,318.42,100.28,329.59,96.08Zm-62.4-61.75A173.71,173.71,0,0,1,315.89,71l6.27,6.74-8.69,3c-8,2.79-16.27,5.35-24.44,7.6l-5.21,1.43-2-5a204.44,204.44,0,0,0-12.57-26.55,167,167,0,0,0-9.66-15.06L245.13,23.13ZM198.93,21.27l8.11,3c21.56,8.08,40.91,30.53,54.48,63.21l2.85,6.86-7.3,1.35a376.73,376.73,0,0,1-51.88,5.89l-6.26.27Zm0,100.51,5.76-.23a396.27,396.27,0,0,0,60.2-7.08l5.57-1.09,1.4,5.5a280.67,280.67,0,0,1,8.09,53.87l.34,6.32H198.93Zm0,77.14h81.37l-.34,6.33a280.67,280.67,0,0,1-8.09,53.87l-1.4,5.5-5.57-1.09a396.38,396.38,0,0,0-60.2-7.08l-5.76-.23ZM207,353.69l-8.11,3V276.11l6.26.27a377,377,0,0,1,51.88,5.89l7.3,1.35-2.85,6.86C247.94,323.16,228.59,345.6,207,353.69ZM315.89,307a173.68,173.68,0,0,1-48.7,36.71l-22.07,11.2,14.49-20.06a166.14,166.14,0,0,0,9.66-15.05,204.38,204.38,0,0,0,12.57-26.55l2-5L289,289.6c8.17,2.25,16.39,4.81,24.44,7.6l8.69,3Zm20.93-27.51-2.59,4.22-4.63-1.74C318.43,277.73,307,274,295.5,270.79l-5.64-1.57,1.43-5.67a300,300,0,0,0,8.57-58.9l.27-5.71h62l-.62,6.57A171,171,0,0,1,336.82,279.44Z" fill="#595f70"/></svg>