<svg xmlns="http://www.w3.org/2000/svg" viewBox="0 0 512 512"><path d="M485.5 92.6c-6.2-16.1-14.5-28.8-26.8-41.1-12.1-12.1-24.8-20.4-41.2-26.9-17-6.6-34.9-10-58-11-26.2-1.1-34.1-1.4-103.6-1.4-67.5 0-76.4.3-103.5 1.5-23 1-40.9 4.4-57.9 11-16.1 6.2-28.8 14.5-41.1 26.8-12.2 12.2-20.5 24.9-26.9 41.2-6.6 17-10 34.9-11 58-1.2 26.9-1.5 35.8-1.5 103.4 0 67.5.3 76.4 1.5 103.5 1 23 4.4 40.9 11 58.1 6.2 16.1 14.5 28.8 26.8 41.1 12.1 12.1 24.8 20.4 41.2 26.9 17 6.6 34.9 10 58 11 27 1.2 36 1.5 103.5 1.5s76.4-.3 103.5-1.5c23-1 40.9-4.4 58.1-11 16.1-6.2 28.8-14.5 41.1-26.8 12.1-12.1 20.4-24.8 26.9-41.2 6.6-17 10-34.9 11-58 1.2-27 1.5-36 1.5-103.5s-.3-76.4-1.5-103.5c-1.1-23.1-4.5-41-11.1-58.1zM471 356.4c-1.2 26.1-5.6 40.5-9.4 50-5.2 13.2-11.3 22.6-21 32.4-9.8 9.8-19.6 16.1-32.5 21.1-9.8 3.8-24.4 8.2-49.9 9.3-27.6 1.2-35.8 1.5-102.2 1.5-66.5 0-74.6-.3-102.3-1.5-26.2-1.2-40.5-5.6-50-9.4-13.2-5.2-22.6-11.3-32.4-21-9.8-9.8-16.1-19.6-21.1-32.5-3.8-9.8-8.2-24.4-9.3-49.9-1.2-27.1-1.5-36-1.5-102.2s.3-75.2 1.5-102.3c1.2-26.1 5.6-40.5 9.4-50 5.2-13.2 11.3-22.6 21-32.4 9.8-9.8 19.6-16.1 32.5-21.1 9.8-3.8 24.4-8.2 49.9-9.3 27-1.3 35.3-1.5 102.2-1.5 66.5 0 74.6.3 102.3 1.5 26.1 1.2 40.5 5.6 50 9.4 13.2 5.2 22.6 11.3 32.4 21 9.8 9.8 16.1 19.6 21.1 32.5 3.8 9.8 8.2 24.4 9.3 49.9 1.2 27.6 1.5 35.8 1.5 102.2s-.3 74.7-1.5 102.3z" fill="#faebe3"/><path d="M255.9 134.7c-65.8 0-119.4 53.6-119.4 119.4 0 65.8 53.6 119.4 119.4 119.4 65.8 0 119.4-53.6 119.4-119.4 0-65.9-53.6-119.4-119.4-119.4zm0 213.4c-51.8 0-94-42.2-94-94s42.2-94 94-94 94 42.2 94 94-42.2 94-94 94z" fill="#faebe3"/><circle cx="390.4" cy="119.6" r="20.2" fill="#faebe3"/></svg>