<svg xmlns="http://www.w3.org/2000/svg" viewBox="0 0 258.87 113.18"><defs><style>.cls-1{fill:#fff;}</style></defs><title>4アセット 6</title><g id="レイヤー_2" data-name="レイヤー 2"><g id="_13" data-name="13"><path class="cls-1" d="M9.13,44.09a4.57,4.57,0,1,0-4.57,4.56A4.57,4.57,0,0,0,9.13,44.09ZM104,56,113,68.6h3.11V49.67h-3.79v12l-8.36-12h-3.7V68.6H104Zm14.46,45.42H49A42.46,42.46,0,0,1,6.56,59V54.52a9.46,9.46,0,0,1-2,.29,9.53,9.53,0,0,1-2.27-.37V59a46.67,46.67,0,0,0,46.62,46.61h69.58v7.57l21.31-9.64-21.31-9.69Zm-33-32.51c5.27,0,9-4.12,9-9.76s-3.7-9.78-9-9.78-8.94,4.1-8.94,9.78S80.19,68.9,85.46,68.9Zm0-16c3,0,5,2.56,5,6.26s-2,6.25-5,6.25-4.93-2.55-4.93-6.25S82.47,52.88,85.46,52.88Zm-21.65,16c4.47,0,7.22-2.61,7.93-6.44H67.82a4,4,0,0,1-4,2.93c-3,0-4.81-2.68-4.81-6.25s1.79-6.26,4.81-6.26a4,4,0,0,1,4,2.89h3.92C71,52,68.28,49.36,63.81,49.36c-5.05,0-8.81,4-8.81,9.78S58.76,68.9,63.81,68.9Zm84-.3h12.86V65.12h-9v-4.5h8.14V57.25h-8.14V53.12h9V49.67H147.79Zm104.53-9.94a9.28,9.28,0,0,1,2-.29,9.53,9.53,0,0,1,2.27.37V54.18A46.67,46.67,0,0,0,210,7.57H140.38V0l-21.3,9.64,21.31,9.69V11.76H209.9a42.48,42.48,0,0,1,42.42,42.42Zm-116.26,3-8.35-12H124V68.6h3.8V56l8.93,12.61h3.12V49.67h-3.8Zm118.25,2.9a4.57,4.57,0,1,0,4.56,4.56A4.57,4.57,0,0,0,254.31,64.53ZM174.65,52.88a4,4,0,0,1,4,2.89h3.92c-.71-3.79-3.46-6.41-7.93-6.41-5.05,0-8.81,4-8.81,9.78s3.76,9.76,8.81,9.76c4.47,0,7.22-2.61,7.93-6.44h-3.92a4,4,0,0,1-4,2.93c-3,0-4.81-2.68-4.81-6.25S171.63,52.88,174.65,52.88Zm12.62.24h6.07V68.6h4V53.12h6.1V49.67H187.27Z"/></g></g></svg>