<svg xmlns="http://www.w3.org/2000/svg" viewBox="0 0 200 100"><path d="M3.8 77.6H1.3v-3.7h2.5c1.4 0 2.2.7 2.2 1.8s-.7 1.9-2.2 1.9m-2.5-8.3h2.2c1.4 0 2.2.5 2.2 1.7s-.8 1.7-2.2 1.7H1.3v-3.4zm4.1 4C6.3 73 7 72.2 7 71c0-1.8-1.3-2.8-3.5-2.8H0v10.6h3.8c2.2 0 3.5-1.1 3.5-3 0-1.2-.7-2.2-1.9-2.5M12.2 78.7h6.7v-1.2h-5.4v-3.6h4.9v-1.2h-4.9v-3.3h5.4v-1.2h-6.7zM23.2 69.4h3.7v9.3h1.4v-9.3h3.6v-1.2h-8.7zM35.9 69.4h3.7v9.3h1.3v-9.3h3.7v-1.2h-8.7zM49.3 78.7H56v-1.2h-5.4v-3.6h4.9v-1.2h-4.9v-3.3H56v-1.2h-6.7zM62.4 73.1v-3.8H65c1.4 0 2.2.7 2.2 1.9s-.8 1.9-2.2 1.9h-2.6zm6.1-1.9c0-2-1.3-3.1-3.5-3.1h-3.9v10.6h1.4v-4.5h1.9l3 4.5H69l-3.1-4.5c1.5-.2 2.6-1.2 2.6-3M85.1 73l-1.8-.5c-1.1-.3-1.7-.7-1.7-1.6 0-1.1.9-1.7 2.2-1.7 1.4 0 2.2.7 2.5 1.6h1.4c-.4-1.7-1.7-2.8-3.9-2.8-2 0-3.5 1.2-3.5 3 0 1.6 1.1 2.3 2.5 2.7l1.9.5c1.2.3 1.7.8 1.7 1.7 0 1.2-1 1.8-2.3 1.8-1.3 0-2.3-.6-2.7-1.8H80c.4 1.9 2 2.9 4.1 2.9 2.1 0 3.7-1.2 3.7-3.1-.1-1.4-1-2.3-2.7-2.7M91.6 69.4h3.7v9.3h1.3v-9.3h3.7v-1.2h-8.7zM106.2 74.4l1.7-4.5 1.7 4.5h-3.4zm1.1-6.2l-4.1 10.6h1.4l1.2-3.2h4.4l1.2 3.2h1.4l-4.1-10.6h-1.4zM118.6 73.1v-3.8h2.5c1.4 0 2.2.7 2.2 1.9s-.8 1.9-2.2 1.9h-2.5zm6-1.9c0-2-1.3-3.1-3.5-3.1h-3.9v10.6h1.4v-4.5h1.9l3 4.5h1.6l-3.1-4.5c1.6-.2 2.6-1.2 2.6-3M128.7 69.4h3.7v9.3h1.3v-9.3h3.7v-1.2h-8.7zM146.2 73l-1.8-.5c-1.1-.3-1.7-.7-1.7-1.6 0-1.1.9-1.7 2.2-1.7 1.4 0 2.2.7 2.5 1.6h1.4c-.4-1.7-1.7-2.8-3.9-2.8-2 0-3.5 1.2-3.5 3 0 1.6 1.1 2.3 2.5 2.7l1.9.5c1.2.3 1.7.8 1.7 1.7 0 1.2-1 1.8-2.3 1.8-1.3 0-2.3-.6-2.7-1.8h-1.4c.4 1.9 2 2.9 4.1 2.9 2.1 0 3.7-1.2 3.7-3.1-.1-1.4-1-2.3-2.7-2.7M168 76.2l-5.7-8H161v10.5h1.3v-8.4l6 8.4h1V68.2H168zM178.8 77.7c-2 0-3.4-1.7-3.4-4.2s1.4-4.2 3.4-4.2c2.1 0 3.4 1.7 3.4 4.2.1 2.4-1.3 4.2-3.4 4.2m0-9.7c-2.8 0-4.8 2.2-4.8 5.5 0 3.2 2 5.4 4.8 5.4s4.8-2.3 4.8-5.4c0-3.3-2-5.5-4.8-5.5M198.7 68.2l-2.2 8.4-2.2-8.4h-1.1l-2.3 8.4-2.1-8.4h-1.4l2.8 10.5h1.3l2.2-8.2 2.2 8.2h1.3l2.8-10.5z"/><g><path d="M58.5 47.1c-1.8 0-2.6-.4-2.6-2.6V26.7c0-2.1.7-2.4 2.5-2.4h1.1v-2.2H47.8v2.2H49c1.7 0 2.5.6 2.5 2.4v17.8c0 1.8-1 2.6-2.7 2.6h-1.1v2.2h11.9v-2.2h-1.1zM98.4 47.1c-1.8 0-2.6-.4-2.6-2.6V26.7c0-2.1.7-2.4 2.5-2.4h1.1v-2.2H87.7v2.2H89c1.7 0 2.5.6 2.5 2.4v17.8c0 1.8-1 2.6-2.7 2.6h-1.1v2.2h11.9v-2.2h-1.2zM62.1 22.1v7.1h2v-1.5c0-1.8.7-3.5 3.1-3.5h4.1v20.2c0 1.8-1.1 2.6-2.8 2.6h-1.2v2.2h12.4V47h-1.2c-1.7 0-2.8-.7-2.8-2.6V24.3H80c2.4 0 3.1 1.7 3.1 3.5v1.5h2v-7.1h-23zM121.8 41.9v.5c0 2.3-.6 4.7-5.4 4.7H108l15.6-22.8v-2.2H103v7.3h2.1v-.9c0-2.3 1.1-4.3 4.2-4.3h8.7l-15.5 22.7v2.2h21.3v-7.4h-2zM146.9 41.9v.7c0 2.4-1.2 4.5-4.2 4.5h-8.1V36.4h4.9c2 0 2.4 1.6 2.4 2.8v1.1h2.1V30.2h-2.1v.9c0 1.2-.4 2.8-2.4 2.8h-4.9v-9.6h7.7c3.9 0 3.9 3.2 3.9 4.4v.6h2v-7.2h-21.6v2.2h.5c1.9 0 2.8.2 2.8 1.9v18.6c0 1.9-1.3 2.2-2.5 2.2h-.7v2.2h22v-7.4h-1.8zM169.1 22.1v2.2h.6c2.1 0 2.9.7 2.9 2.6V42L159 22.2h-7.1v2.2h.7c1.3 0 2.4.5 2.4 2.6v17.8c0 1.8-1.3 2.4-2.3 2.4h-.9v2.2h9.3v-2.2h-.9c-1 0-2.5-.2-2.5-2.4V28.1l14.5 21.2h3.2V26.9c0-1.8.8-2.6 2.9-2.6h.6v-2.2h-9.8zM35.8 47.8c-5.4 0-9.7-5.2-9.7-12.1 0-7.6 3.1-12.4 9.2-12.4 5 0 7 2.6 7.8 5.8H45c-.2-1.9-.6-5.2-.6-6-1.7-.4-4.8-2-9.5-2-8.3 0-14.3 5.7-14.3 14.6 0 8.7 6.9 14.3 14.2 14.3 3.4 0 6.7-.8 9.5-2.9.1-.7.6-2.7 1.1-4.4h-2.1c-1.5 3.7-4.4 5.1-7.5 5.1z"/></g></svg>