<svg xmlns="http://www.w3.org/2000/svg" width="907.999" height="344.912" viewBox="0 0 907.999 344.912"><g transform="translate(-247.6 -144.445)"><path d="M1140.335,371a2.751,2.751,0,0,0-3.28-2.084c-7.271,1.622-13.861,6.509-25.842,15.731-4.8,3.7-6.971,3.838-7.4,3.578-.02-.011-1.925-1.28-.29-10.931.034-.2.077-.419.12-.64a31.209,31.209,0,0,1,7.057-3.044,2.748,2.748,0,0,0-1.215-5.36,23.349,23.349,0,0,0-3.917,1.346c3.362-10.622,9.733-26.44,13.2-32.529a2.409,2.409,0,0,0,1.306.323,2.748,2.748,0,0,0,2.735-2.761c-.019-3.955-1.781-4.928-3.254-5.049-1.951-.16-4.362-.351-12.68,20.347a225.671,225.671,0,0,0-8.019,23.118,213.221,213.221,0,0,0-23.374,16.244c-4.741,3.745-6.9,3.911-7.327,3.657-.02-.011-1.993-1.3-.358-11.354,1.346-8.286,10.669-33.18,15.153-41.318a2.649,2.649,0,0,0,1.3.317,2.747,2.747,0,0,0,2.729-2.767c-.028-4.016-1.8-4.995-3.276-5.109-2.267-.187-3.956,1.638-6.73,7.185-1.706,3.412-3.749,8.146-5.907,13.692-3.545,9.108-7.777,21.48-8.694,27.118-1.541,9.471-.589,14.864,3,16.972a6.175,6.175,0,0,0,3.19.847c3.585,0,7.464-2.664,10.33-4.928a223.691,223.691,0,0,1,18.693-13.363c-.689,6.819.413,10.9,3.4,12.7a6.207,6.207,0,0,0,3.259.878c3.568,0,7.448-2.6,10.325-4.811,11.345-8.733,17.551-13.355,23.686-14.722A2.748,2.748,0,0,0,1140.335,371Z" transform="translate(-287.217 -97.655)" fill="#0096df"/><path d="M989.149,347.46a8.428,8.428,0,0,0-8.459-2.72c-8.864,1.989-18.023,16.149-21.015,28.126a44.913,44.913,0,0,0-1.406,13.145c-22.68,29.067-55.219,57.714-77.846,62.585-14.428,3.106-25.54,1.368-32.139-5.03-6.065-5.881-8.075-15.509-5.813-27.84,5.507-30.006,19.211-52.471,41.9-68.68,12.065-8.619,28.4-12.919,36.273-4.458,5.535,5.947,3.787,15.9-4.562,25.976a2.748,2.748,0,0,0,4.231,3.506c12.25-14.785,10.281-26.858,4.353-33.226-4.2-4.509-10.7-6.735-18.292-6.266-8.022.494-16.735,3.95-25.2,10-23.9,17.078-38.329,40.681-44.106,72.158-2.61,14.224-.054,25.558,7.391,32.777,5.524,5.357,13.376,8.075,23.1,8.075a66.929,66.929,0,0,0,14.024-1.617c23.046-4.962,54.742-31.938,77.936-60.585a16.446,16.446,0,0,0,4.865,7.966,10.471,10.471,0,0,0,6.734,2.4,15.49,15.49,0,0,0,6.719-1.713c14.459-6.963,20.176-26.75,18.743-38.358C995.541,355.293,993.047,349.851,989.149,347.46ZM965.006,374.2a47.774,47.774,0,0,1,8.362-17.178,2.741,2.741,0,0,0,2.336-.656,31.5,31.5,0,0,1,3.1-2.475,161.055,161.055,0,0,1-14.568,24.142C964.434,376.76,964.686,375.478,965.006,374.2Zm10.445,22.887c-4.78,2.3-6.9.572-7.6,0-2.081-1.694-3.41-5.113-3.889-9.352,9.18-12,16.685-24.07,21.268-34.716a2.716,2.716,0,0,0,.208-1.248c.064.019.13.034.192.057,2.628.984,4.63,5.548,5.492,12.522C992.323,374.067,987.432,391.315,975.451,397.084Z" transform="translate(-223.273 -98.495)" fill="#0096df"/><path d="M1325.948,299c12.086-2.829,23.715-4.872,28.106-5.332a2.748,2.748,0,0,0-.574-5.466c-3.108.326-11.826,1.763-21.947,3.918A2.737,2.737,0,0,0,1328,288.56c-1.965.75-3.838,2.678-5.659,5.638-9.544,2.3-19.23,5.084-25.984,8.083a22.13,22.13,0,0,1-3.1,1.081c-.286.082-.54.155-.76.224a2.748,2.748,0,1,0,1.651,5.241c.179-.057.387-.115.62-.182a27.659,27.659,0,0,0,3.825-1.344,141.414,141.414,0,0,1,20.5-6.62,169.219,169.219,0,0,0-6.772,20.489,2.663,2.663,0,0,0-.434-.026,2.748,2.748,0,0,0-2.692,2.8c.046,2.361.093,4.544.135,6.571-7.719,7.3-26.964,16.6-44.4,21.408-6.081,1.676-10.7,1.326-13.733-1.038-2.917-2.277-3.886-6.136-3.818-8.988.113-4.8,4.958-14.958,17.846-23.251,4.73-3.044,7.15-3.156,7.734-2.992.114.711-.591,3.3-4.035,6.617a2.748,2.748,0,0,0,3.813,3.957c5.39-5.193,7.174-10.7,4.543-14.023-1.537-1.944-5.534-4.292-15.03,1.819-13.753,8.85-20.2,20.585-20.366,27.744-.048,2.031.239,9.006,5.931,13.449a16.256,16.256,0,0,0,10.3,3.242,31.347,31.347,0,0,0,8.277-1.237c17.008-4.688,32.369-12.214,41.465-18.554-.167.7-.333,1.378-.5,2.084-.539,2.264-.964,4.052-1.243,5.1-.037.139-3.475,14.046,1.7,16.022a3.372,3.372,0,0,0,1.2.226c1.159,0,2.653-.65,3.98-3.26,2.235-4.4,2.235-9.591,1.9-25.808,1.547-6.2,3.474-13.467,5.619-20.133A93.481,93.481,0,0,1,1325.948,299Z" transform="translate(-338.301 -85.929)" fill="#0096df"/><path d="M1414.072,297.42c-1.466-.078-4.867.62-12.257,2.247-3.793.835-8.978,1.976-10.068,2a2.748,2.748,0,0,0-.36,5.483c.092.007.191.011.3.011,1.273,0,3.776-.487,8.744-1.569-.611,2.738-1.619,6.781-2.551,10.512-2.769,11.092-5.908,23.664-6.015,29.013a2.654,2.654,0,0,0,.025.3c-.935.376-1.8.755-2.625,1.114a18.875,18.875,0,0,1-5.879,1.9,2.748,2.748,0,0,0,.236,5.485c.08,0,.161,0,.242-.011a23.5,23.5,0,0,0,7.606-2.339,34.814,34.814,0,0,1,14.557-3.5,2.748,2.748,0,0,0-.084-5.494h-.086a41.8,41.8,0,0,0-8.386,1.056c.613-5.668,3.542-17.4,5.739-26.2,1.767-7.077,2.708-10.925,3.082-13.126a74.979,74.979,0,0,1,7.463-1.405h0a2.748,2.748,0,1,0,.314-5.487Z" transform="translate(-377.703 -88.544)" fill="#0096df"/><path d="M1545.937,207.5h-.069a2.747,2.747,0,0,0-2.745,2.681c-.416,17.063-5.2,40.509-12.474,61.19-7.148,20.309-15.665,34.516-21.7,36.2-.766.212-2.792.779-5.313-3.146-.826-1.794-2.562-13.385-4.76-40.265l-.049-.613c-.26-3.121-.982-7.328-4.237-7.84-3.6-.562-5.56,4.112-6.608,6.626a61.875,61.875,0,0,0-2.377,7.729c-1.641,4.644-4.045,7.321-7.35,8.175a11.549,11.549,0,0,1-4.564.148,21.139,21.139,0,0,0-5.949-13.3A2.749,2.749,0,0,0,1468.3,260c-1.759-.92-4.8-.81-8.159.177a18.971,18.971,0,0,0-2.245-.669c-4.509-1.044-8.255-.011-9.767,2.7a5.8,5.8,0,0,0-.171,5.125c-5.276,4.941-10.733,13.171-12.637,26.658-1.505,10.666,1.225,19.9,6.958,23.514a11.2,11.2,0,0,0,6.069,1.733c2.826,0,6.312-.962,10.491-3.73,10.878-7.2,14.356-21.855,14.888-31.578a18.938,18.938,0,0,0,1.95.114,15.767,15.767,0,0,0,3.944-.484,13.9,13.9,0,0,0,3.275-1.306c-.487,2.471-.944,4.939-1.35,7.283-3.662,21.158-2.232,23.475-1.621,24.464a2.747,2.747,0,0,0,4.794-2.673c-.834-3.414,2.627-25.878,5.993-39.232.049-.137.1-.267.151-.406a2.738,2.738,0,0,0,.132-.7,53.671,53.671,0,0,1,2.062-6.546c.1-.231.189-.446.278-.648.006.067.011.135.017.206l.05.6c3.188,38.978,4.918,41.695,5.569,42.717,4.11,6.451,8.941,6.239,11.454,5.54,11.046-3.074,20.662-26.172,25.411-39.666,7.456-21.187,12.354-45.281,12.784-62.88A2.748,2.748,0,0,0,1545.937,207.5Zm-90.191,60.7a24.312,24.312,0,0,1,4.135-2.126,15.274,15.274,0,0,1,8.019,10.567,50.942,50.942,0,0,1-12.411-8c-.056-.057-.113-.115-.166-.171Q1455.536,268.335,1455.746,268.2Zm.057,42.725c-3.041,2.013-7.346,3.982-10.593,1.933-3.847-2.428-5.636-9.7-4.45-18.1,1.6-11.346,5.9-18.417,10.3-22.8.186.2.378.4.58.6.019.019.041.031.06.049s.033.041.053.059a60.64,60.64,0,0,0,9.051,6.51,41.261,41.261,0,0,0,7.461,3.493C1467.961,290.479,1465.443,304.541,1455.8,310.926Z" transform="translate(-393.018 -63.059)" fill="#0096df"/><path d="M355.267,372.822c19.367-7.439,29.961-19.411,38.37-30.049a2.748,2.748,0,1,0-4.311-3.408c-7.957,10.066-17.96,21.386-36.03,28.326-6.548,2.516-11.766,2.583-15.507.2-3.932-2.5-5.611-7.357-5.871-11.065-.407-5.8,4.877-28.012,24.677-44.457,5.79-4.809,14.475-7.707,19.167-3.6,2.994,2.618,2.754,7.423-.645,12.853a2.748,2.748,0,1,0,4.658,2.916c5.834-9.32,3.621-16.393-.4-19.905-7.057-6.169-18.569-2.9-26.3,3.514-20.093,16.69-27.27,40.194-26.647,49.069.354,5.043,2.747,11.715,8.4,15.315a17.158,17.158,0,0,0,9.409,2.6A31.022,31.022,0,0,0,355.267,372.822Z" transform="translate(-78.8 -89.657)" fill="#0096df"/><path d="M465.508,296.123a2.728,2.728,0,0,0,1.048-.209c.237-.1.533-.2.877-.317a30.767,30.767,0,0,0,3.329-1.325,172.547,172.547,0,0,1,20.406-7.622,138.578,138.578,0,0,0-4.953,16.455c-.835,3.393-1.6,6.825-2.283,10.106a2.788,2.788,0,0,0-.391.149,2.748,2.748,0,0,0-1.318,3.655q.347.738.658,1.46c-1.216,6.339-2.042,11.579-2.357,14.028-.915,7.141-1.384,15.494,3.151,16.713a3.765,3.765,0,0,0,.981.131c1.455,0,3.474-.87,5.134-4.823,2.274-5.41,3.151-15.358-1.2-26.6.839-4.272,1.841-8.954,2.962-13.509,2.567-10.429,4.81-16.432,6.521-19.893,11.8-3.515,23.119-6.339,27.438-7.162a2.748,2.748,0,0,0-1.03-5.4c-3.06.583-11.581,2.633-21.468,5.408a2.714,2.714,0,0,0-.259-1.154,2.747,2.747,0,0,0-3.661-1.3c-1.288.612-2.893,1.835-4.766,4.987-9.54,2.888-19.254,6.216-25.93,9.407a25.734,25.734,0,0,1-2.762,1.093c-.464.16-.86.3-1.179.432a2.748,2.748,0,0,0,1.052,5.287Zm19.938,43.988a57.131,57.131,0,0,1,.529-6.91c.047-.366.107-.805.18-1.311A28.417,28.417,0,0,1,485.447,340.111Z" transform="translate(-117.452 -81.317)" fill="#0096df"/><path d="M542.075,290.168a2.747,2.747,0,0,0,.1,5.493h.091c1.294-.042,4.425-.825,10.983-2.57-.49,2.5-1.113,5.477-1.7,8.284-2.339,11.2-4.984,23.853-4.85,29.485-.389.15-.76.3-1.121.444a21.863,21.863,0,0,1-5.151,1.527,2.748,2.748,0,1,0,.953,5.412,27.5,27.5,0,0,0,6.253-1.842c2.345-.946,5-2.017,13.545-3.1a2.748,2.748,0,1,0-.689-5.452c-3.578.452-6.214.911-8.265,1.365.33-5.782,2.828-17.735,4.706-26.718,1.082-5.181,1.786-8.621,2.206-10.975,3.732-.984,7.384-1.91,8.26-1.96a2.748,2.748,0,0,0-.277-5.489,54.806,54.806,0,0,0-7.852,1.734,2.733,2.733,0,0,0-5.117,1.354l-.491.13C549.248,288.472,543.208,290.086,542.075,290.168Z" transform="translate(-138.825 -84.762)" fill="#0096df"/><path d="M428.7,356.307c-.614.278-1.189.551-1.739.813a21.087,21.087,0,0,1-5.92,2.107,2.747,2.747,0,1,0,.954,5.411,26.131,26.131,0,0,0,7.331-2.558c3.1-1.476,6.608-3.149,14.984-4.208a2.748,2.748,0,0,0-.689-5.452,61.594,61.594,0,0,0-9.3,1.82c.561-6.119,2.859-17.117,4.615-25.517,1.422-6.806,2.19-10.615,2.521-12.893a73.814,73.814,0,0,1,7.678-2.079,2.748,2.748,0,0,0-.277-5.489c-1.333.067-4.149.84-9.389,2.428a2.713,2.713,0,0,0-2.54.775l-1.18.363c-4.152,1.275-9.832,3.019-10.979,3.126a2.748,2.748,0,0,0,.113,5.493h.091c1.331-.044,4.341-.9,10.6-2.819-.517,2.762-1.3,6.5-2.023,9.973C431.315,338.309,428.8,350.354,428.7,356.307Z" transform="translate(-104.984 -91.619)" fill="#0096df"/><path d="M784.578,220.974h-.061a2.748,2.748,0,0,0-2.745,2.688c-.261,11.982-10.722,47.707-13.679,52.474-1.231,1.986-2.152,2.58-2.442,2.658a2.28,2.28,0,0,1-.625-.809c-1.358-2.757-9.587-36.081-10.123-39.114-.307-1.745-1.027-5.831-4.3-6.311-3.381-.5-5.459,3.619-6.344,5.376-2.247,4.467-5.57,18.148-7.865,29.725-4.9,24.7-3.073,26.485-1.984,27.552a2.748,2.748,0,0,0,4.268-3.394c-1.052-5.383,6.821-44.12,10.49-51.413.112-.221.217-.424.318-.61l.005.03c.322,1.828,8.783,37.171,10.676,40.729,1.246,2.341,3.12,3.669,5.276,3.741,2.628.085,5.1-1.683,7.319-5.262,3.715-5.987,14.23-42.7,14.5-55.252A2.747,2.747,0,0,0,784.578,220.974Z" transform="translate(-194.1 -66.877)" fill="#0096df"/><path d="M636.482,307.79a2.747,2.747,0,0,0-3.1-2.339c-15.717,2.21-30.73,8.033-40.159,15.578a15.477,15.477,0,0,1-2.355,1.611,22.1,22.1,0,0,1,3.341-7.717A297.521,297.521,0,0,1,629.2,270.5c1.179-1.174,4.767-4.749,3.031-8.224-1.826-3.654-7.56-2.873-7.619-2.864C611.1,261.362,600.5,265.4,593.1,271.4a2.748,2.748,0,1,0,3.462,4.268c6.621-5.37,16.323-9.01,28.836-10.816a5.8,5.8,0,0,1,1.415.028,12.234,12.234,0,0,1-1.489,1.727,303.755,303.755,0,0,0-35.746,45.357c-3.512,5.492-6.062,12.443-2.681,15.483a4.175,4.175,0,0,0,2.883,1.1c1.889,0,4.189-1.078,6.877-3.229,8.562-6.852,22.927-12.38,37.49-14.427A2.748,2.748,0,0,0,636.482,307.79Z" transform="translate(-152.19 -77.751)" fill="#0096df"/><path d="M662.864,301.866c-1.957,1.368-2.764,3.321-2.109,5.1.293.794,1.286,2.519,4.366,2.519.282,0,.583-.014.9-.045a2.74,2.74,0,0,0,2.4-3.383c.03,0,.057.011.087.013.072,0,.158.007.256.007.763,0,2.227-.264,3.315-3.1,7.132-3.459,19.031-7.843,31.343-7.4l.1,0a2.748,2.748,0,0,0,.1-5.494c-12.778-.467-24.554,3.644-32.129,7.137.854-4.1,2.43-10.488,4.076-16.926a69.587,69.587,0,0,1,20.76-6.83,2.748,2.748,0,0,0-.823-5.434,75.543,75.543,0,0,0-18.141,5.322c.911-3.491,1.768-6.738,2.453-9.332.633-2.4,1.161-4.4,1.594-6.057,8.406-3.381,18.891-6.515,29.286-9.5a2.748,2.748,0,1,0-1.518-5.282c-9.1,2.615-18.276,5.35-26.225,8.313a2.741,2.741,0,0,0-5.445-.567c-.053.33-.328,1.447-.736,3.034a55.251,55.251,0,0,0-11.884,6.59c-3.624,2.833-3.183,5.191-2.6,6.344a4.318,4.318,0,0,0,4.082,2.154,8.284,8.284,0,0,0,2.249-.331,2.748,2.748,0,0,0,.96-4.794,44.856,44.856,0,0,1,5.4-3.1q-.235.891-.476,1.8-2.057,7.791-3.661,14a23,23,0,0,0-6.2,4.8,2.737,2.737,0,0,0,4.043,3.677,145.211,145.211,0,0,0-3.268,15.227C663.811,301.238,662.9,301.839,662.864,301.866Z" transform="translate(-173.513 -73.141)" fill="#0096df"/><path d="M1214.071,354.622c-14.824.977-27.442,6.94-35.16,11.548.55-4.256,1.646-10.765,2.827-17.391,1.255-.555,2.661-1.184,4.258-1.9,5.152-2.311,12.208-5.476,13.846-5.76a2.748,2.748,0,1,0-.939-5.414c-2.162.375-7.168,2.578-15.156,6.161l-.824.37c.785-4.284,1.54-8.306,2.127-11.438.63-3.36,1.124-5.995,1.493-8.014a221.131,221.131,0,0,1,34.655-13.254,2.748,2.748,0,0,0-1.491-5.289,231.177,231.177,0,0,0-32.539,12.192,2.741,2.741,0,0,0-5.265.846c-.019.244-.122.893-.283,1.82A92.09,92.09,0,0,0,1166.7,328c-3.651,2.886-3.2,5.289-2.6,6.464a4.633,4.633,0,0,0,4.385,2.271,9.283,9.283,0,0,0,2.466-.356,2.748,2.748,0,0,0,.522-5.091,85.07,85.07,0,0,1,8.9-5.375c-.232,1.242-.476,2.544-.724,3.866q-1.583,8.439-2.8,15.137a38.011,38.011,0,0,1-4.455,1.74,2.748,2.748,0,0,0,.472,5.454,2.815,2.815,0,0,0,.474-.041,14.134,14.134,0,0,0,2.367-.739c-1.639,9.385-2.536,15.522-2.621,18.643-1.436,1.033-2.234,1.69-2.269,1.722-1.794,1.569-2.383,3.616-1.536,5.34a4.222,4.222,0,0,0,4.122,2.2,9.283,9.283,0,0,0,1.792-.188,2.747,2.747,0,0,0,2.166-3.226c-.009-.042-.024-.079-.034-.119,1.455-.312,2.475-1.666,3.042-4.051,7.3-4.5,19.923-10.623,34.065-11.554a2.748,2.748,0,0,0-.361-5.484Z" transform="translate(-316.14 -90.45)" fill="#0096df"/><path d="M748.066,461.7c-9.859,2.056-42.182,13.828-60.429,23.367-2.619,1.369-10.59,5.531-12.82,3.946-.942-.669-2.244-3.295-1.04-13.163a184,184,0,0,1,19.345-9.23,2.748,2.748,0,1,0-1.936-5.143A165.874,165.874,0,0,0,675.031,469c1.894-7.51,6.177-20.34,11.154-33.214,5.889-15.235,10.219-24.086,12.653-28.017a2.775,2.775,0,0,0,2.147.948,2.747,2.747,0,0,0,2.677-2.817c-.094-3.679-1.328-5.616-3.67-5.758-2.091-.124-5.594-.335-18.1,31.516-5.7,14.511-12.036,33.1-13.19,40.7a371.5,371.5,0,0,0-35.087,21.549c-7.626,5.394-12.758,7.5-15.256,6.261-1.618-.8-3.617-3.869-3.948-13.9-.172-5.173,2.193-18.695,5.623-32.149,3.472-13.62,6.481-21.318,8.273-24.442a2.748,2.748,0,0,0,4.943-2.249c-1.245-4.461-3.728-4.773-5.1-4.562-1.754.269-5.863.9-13.011,28.236-3.159,12.079-6.452,28.293-6.219,35.348.351,10.664,2.509,16.414,7,18.643a9,9,0,0,0,4.075.929c4.169,0,9.483-2.451,16.8-7.625a357.708,357.708,0,0,1,31.145-19.354c-.579,7.89.583,12.246,3.7,14.457a7.618,7.618,0,0,0,4.553,1.363c3.673,0,8.288-1.935,14-4.917,17.886-9.351,49.427-20.861,59-22.858a2.748,2.748,0,1,0-1.121-5.38Z" transform="translate(-158.881 -117.659)" fill="#0096df"/><path d="M566.638,521.974a150.209,150.209,0,0,0-56.927,14.551c.138-5.558,1.005-15.081,2.053-25.03,2.944-1.106,6.483-2.481,10.611-4.092,8.9-3.472,19.976-7.792,23.1-8.24a2.748,2.748,0,1,0-.781-5.439c-3.491.5-11.9,3.715-24.318,8.56-2.631,1.026-5.378,2.1-7.953,3.083.9-8.128,1.837-16.058,2.528-21.879q.346-2.916.633-5.34c13.321-6.359,29.963-11.767,51.562-16.852a2.748,2.748,0,0,0-1.26-5.349c-20.338,4.789-36.419,9.886-49.561,15.8.445-3.955.657-6.2.641-7.073a2.747,2.747,0,0,0-2.746-2.7h-.052a2.748,2.748,0,0,0-2.7,2.8c.016.808-.408,4.7-1,9.755a119.5,119.5,0,0,0-14.425,8.517c-4.556,3.161-4.622,5.838-3.873,7.526,1.433,3.235,6.2,3.4,9.84,2.552a2.748,2.748,0,1,0-1.241-5.353,11.112,11.112,0,0,1-2.284.3c.2-.156.427-.325.691-.509a110.488,110.488,0,0,1,10.515-6.432q-.1.848-.2,1.7-1.663,14.008-2.835,24.678a38.279,38.279,0,0,1-5.284,1.647,2.748,2.748,0,1,0,.782,5.439,25.312,25.312,0,0,0,3.859-1.048c-1.295,12.518-1.917,21.017-1.743,25.757a81.049,81.049,0,0,0-8.32,5.069c-2.648,2.05-2.869,4.444-2.193,6,.5,1.151,1.883,2.85,5.683,2.85A16.552,16.552,0,0,0,502.1,553a2.748,2.748,0,1,0-.883-5.424c-.12.019-.236.037-.348.053,1.169-.78,2.739-1.745,4.678-2.827.742,1.4,1.983,2.854,4.02,2.534,2.774-.436,3.621-4.028,3.874-6.537a148.523,148.523,0,0,1,53.495-13.336,2.748,2.748,0,0,0-.3-5.487Z" transform="translate(-125.691 -133.461)" fill="#0096df"/><path d="M453.34,462.219c-.335-.732-1.743-3.037-5.76-2-6.968,1.8-22.932,14.386-36.1,40.505-1.5,2.984-3.031,6.268-4.536,9.86-11.585,8.5-20.109,10.284-25.8,9.871-14.908-1.075-25.426-17.971-31.265-50.217l-.005-.024a57.07,57.07,0,0,1,5.966,6.829,2.747,2.747,0,1,0,4.4-3.293c-9.132-12.2-12.422-10.77-13.66-10.231-3.245,1.413-2.418,5.98-2.107,7.7,5.745,31.729,16.347,49.871,31.512,53.923,6.457,1.724,15.583,1.326,27.527-5.666-8.232,23.219-14.659,56.673-11.219,101.962a2.747,2.747,0,0,0,2.736,2.54c.07,0,.14,0,.211-.008a2.749,2.749,0,0,0,2.532-2.948c-2.759-36.326.538-68.8,9.8-96.526,1.22-3.654,2.505-7.1,3.829-10.333,6.948-5.267,14.7-12.643,23.263-22.788a207.782,207.782,0,0,0,13.641-18.035C454.316,464.352,453.907,463.457,453.34,462.219ZM424.61,494.45q-4.031,4.343-7.734,7.8c6.976-13.559,14.182-22.2,18.684-26.837a50.279,50.279,0,0,1,10.365-8.505A194.434,194.434,0,0,1,424.61,494.45Z" transform="translate(-83.83 -134.618)" fill="#0096df"/></g></svg>