<?xml version="1.0" encoding="utf-8"?>
<!-- Generator: Adobe Illustrator 25.0.0, SVG Export Plug-In . SVG Version: 6.00 Build 0)  -->
<svg version="1.1" id="レイヤー_1" xmlns="http://www.w3.org/2000/svg" xmlns:xlink="http://www.w3.org/1999/xlink" x="0px"
	 y="0px" viewBox="0 0 350 250" style="enable-background:new 0 0 350 250;" xml:space="preserve">
<style type="text/css">
	.st0{fill:#595F70;}
</style>
<path class="st0" d="M125,3.9h-12.7v-2h30.2v2h-12.7c-0.7,0-1.3,0.6-1.3,1.3V49h-2.2V5.2C126.3,4.5,125.8,3.9,125,3.9 M160,1.9h2.2
	v20.8c0,0.8,0.7,1.5,1.5,1.5h24c0.8,0,1.5-0.7,1.5-1.5V1.9h2.2V49h-2.2V27.9c0-0.8-0.7-1.5-1.5-1.5h-24c-0.8,0-1.5,0.7-1.5,1.5V49
	H160V1.9 M213.1,1.9h24.2v2h-20c-1.1,0-2,0.9-2,2v16.4c0,1.1,0.9,2,2,2h17.6v2.1h-17.6c-1.1,0-2,0.9-2,2V45c0,1.1,0.9,2,2,2h20.3v2
	h-24.5L213.1,1.9 M51.5,90.8h24.2v2h-20c-1.1,0-2,0.9-2,2v16.4c0,1.1,0.9,2,2,2h17.6v2.1H55.7c-1.1,0-2,0.9-2,2V134c0,1.1,0.9,2,2,2
	H76v2H51.5V90.8 M200.5,90.8h24.2v2h-20c-1.1,0-2,0.9-2,2v16.4c0,1.1,0.9,2,2,2h17.6v2.1h-17.6c-1.1,0-2,0.9-2,2V134
	c0,1.1,0.9,2,2,2H225v2h-24.5V90.8 M256.5,179.6h24.2v2h-20c-1.1,0-2,0.9-2,2V200c0,1.1,0.9,2,2,2h17.6v2.1h-17.6c-1.1,0-2,0.9-2,2
	v16.7c0,1.1,0.9,2,2,2H281v2h-24.5V179.6 M1.1,131.8l1.5-1.6c3.9,4,8.6,6.3,14.3,6.3c6.9,0,11.7-4.3,11.7-10v-0.1
	c0-5-2.6-8-12.4-11.5C6.5,111.5,3,108,3,101.8v-0.1c0-6.4,5.7-11.5,13.5-11.5c5.5,0,9.8,1.9,13.5,5.1L28.5,97
	c-3.4-3-7.4-4.8-12.2-4.8c-6.7,0-11.1,4.3-11.1,9.4v0.1c0,5.1,2.8,8,12.3,11.3c10.3,3.7,13.4,7.4,13.4,13.3v0.1
	c0,6.9-5.6,12.1-14,12.1C10.6,138.5,5.4,136.1,1.1,131.8 M97.9,90.8h2.1l27,40.2c0.5,0.8,1.7,0.4,1.7-0.5V90.8h2.2V138H129
	l-27.3-40.7c-0.5-0.8-1.7-0.4-1.7,0.5V138h-2.1V90.8 M150.1,131.8l1.5-1.6c3.9,4,8.6,6.3,14.3,6.3c6.9,0,11.7-4.3,11.7-10v-0.1
	c0-5-2.6-8-12.4-11.5s-13.3-6.9-13.3-13.1v-0.1c0-6.4,5.7-11.5,13.5-11.5c5.5,0,9.8,1.9,13.5,5.1l-1.4,1.8c-3.4-3-7.4-4.8-12.2-4.8
	c-6.7,0-11.1,4.3-11.1,9.4v0.1c0,5.1,2.8,8,12.3,11.3c10.3,3.7,13.4,7.4,13.4,13.3v0.1c0,6.9-5.6,12.1-14,12.1
	C159.6,138.5,154.5,136.1,150.1,131.8 M328.7,90.8h21.4v2h-17.5c-0.9,0-1.7,0.7-1.7,1.7v17.6c0,0.9,0.7,1.7,1.7,1.7h17.5v2h-17.5
	c-0.9,0-1.7,0.7-1.7,1.7V138h-2.2L328.7,90.8 M15.4,179.7h2.4L29,219.3c0.3,1.1,1.9,1.1,2.2,0l11.2-39.8h1.8l11.2,39.8
	c0.3,1.1,1.9,1.1,2.2,0l11.2-39.6H71l-13.6,47.5h-2l-11.1-39.3c-0.3-1.1-1.9-1.1-2.2,0L31,227.2h-1.9L15.4,179.7 M147.7,179.7h2.1
	l27,40.2c0.5,0.8,1.7,0.4,1.7-0.5v-39.7h2.2v47.2h-1.8l-27.3-40.7c-0.5-0.8-1.7-0.4-1.7,0.5v40.2h-2.1L147.7,179.7 M203.6,179.7
	h11.8c13.2,0,22.2,9.5,22.2,23.4v0.4c0,13.7-8.9,23.4-22.2,23.4h-11.7v-47.2 M205.8,183.6v39.3c0,1.1,0.9,1.9,1.9,1.9h7.6
	c12.1,0,20-8.8,20-21.3V203c0-12.5-8-21.4-20.1-21.4h-7.5C206.7,181.7,205.8,182.6,205.8,183.6z M302.9,179.7h14.8
	c5.5,0,9.8,1.5,12.4,4.2c2.3,2.3,3.6,5.4,3.6,9.2v0.1c0,7.1-4.4,11.5-11,13c-0.9,0.2-1.3,1.2-0.8,1.9l12.7,18.7h-2.7l-13.1-19.4
	c-0.2-0.3-0.6-0.6-1.1-0.6h-11.3c-0.7,0-1.3,0.6-1.3,1.3v18.7h-2.2V179.7 M316.8,204.9c9.8,0,14.6-4.6,14.6-11.7v-0.1
	c0-7.3-5.3-11.5-13.9-11.5h-11.1c-0.7,0-1.3,0.6-1.3,1.3v20.6c0,0.7,0.6,1.3,1.3,1.3L316.8,204.9L316.8,204.9z M289.9,91.8
	c12.4,0,22.6,10.1,22.6,22.6c0,12.4-10.1,22.6-22.6,22.6c-12.4,0-22.6-10.1-22.6-22.6S277.4,91.8,289.9,91.8 M289.9,89.8
	c-13.6,0-24.6,11-24.6,24.6s11,24.6,24.6,24.6s24.6-11,24.6-24.6C314.4,100.8,303.4,89.8,289.9,89.8z M105.7,180.8
	c12.4,0,22.6,10.1,22.6,22.6c0,12.4-10.1,22.6-22.6,22.6c-12.4,0-22.6-10.1-22.6-22.6C83.2,190.9,93.3,180.8,105.7,180.8
	 M105.7,178.8c-13.6,0-24.6,11-24.6,24.6s11,24.6,24.6,24.6s24.6-11,24.6-24.6S119.3,178.8,105.7,178.8z"/>
</svg>
