<svg xmlns="http://www.w3.org/2000/svg" x="0" y="0" viewBox="0 0 500 120" xml:space="preserve"><style>.st0{fill:#595f70}</style><path class="st0" d="M27.1 7.9c.1-.2.2-.3.4-.3s.4.1.4.3l1.6 4.4 3.6-3.6-3-8.1h-1l-5.8 17.8.4-.4 3.4-10.1M4.8 4.1c.4.9 1 2.8 1.9 5.6l6 19.5 3.6-3.6L11.2 9C10.4 6.3 10 4.7 10 4c0-.9.3-1.5.9-2 .5-.4 1.6-.7 3.2-.8V.6H.3v.5c1.3.1 2.2.4 2.8.8.7.5 1.3 1.2 1.7 2.2M45.6 1.1c2.7.1 4.1 1.6 4.1 4.3 0 .9-.4 2.8-1.2 5.7l-6 20.9c-.1.2-.2.3-.4.3s-.4-.1-.4-.3l-8-21.9-3.6 3.6L39.8 40h.7L49 10.7c1.2-4.1 2.2-6.6 3-7.7.8-1.1 1.9-1.7 3.4-1.9V.6h-9.8v.5M16 40h.7L23 20.6l-.4.4L19 31.9c-.1.2-.2.3-.4.3s-.4-.1-.4-.3l-1.5-5-3.6 3.6L16 40M75.5 26.7c-.4-2.1-.6-4.4-.6-7 0-6.3 1.3-11.1 3.9-14.4C81.4 2 85.2.4 90 .4c3.6 0 6.7.9 9.1 2.8l1.2-1.2C97.3.6 93.9-.2 90.1-.2 84-.1 79 1.7 75 5.3c-3.9 3.6-5.9 8.4-5.9 14.3 0 4.1.9 7.8 2.7 10.8l3.7-3.7M104.9 5.2c-1.1-1-2.4-1.9-3.7-2.6L99.9 4c.5.5 1 1 1.4 1.5 2.6 3.3 3.9 8.1 3.9 14.3 0 6.4-1.3 11.2-4 14.5-2.6 3.3-6.3 4.9-10.8 4.9-5.2 0-9.1-1.7-11.7-4.9-1.3-1.6-2.3-3.7-2.9-6.2l-3.3 3.3c.7 1 1.5 2 2.4 2.8 3.9 3.7 9 5.5 15 5.5 6.3 0 11.4-1.9 15.2-5.5 3.8-3.7 5.8-8.5 5.8-14.5 0-6.1-2-10.9-6-14.5M142.7 39v-.4c-1.7 0-3.1-.3-4.1-.8l-1.2 1.2h5.3M137.5 37.2c-.7-.5-1.2-1.1-1.4-1.8-.2-.8-.4-2.3-.4-4.6V18.3l-.5.5v12c0 2.4-.1 4-.3 4.6-.2.8-.9 1.4-2 2-1 .5-2.3.9-4.1 1.1v.5h6.7l2-1.8M167.2 2.1c.9-.5 2.2-.8 3.7-1V.6h-13.4V1c1.4 0 2.6.2 3.7.6 1.2.4 2 1.1 2.4 1.9.4.8.6 2 .6 3.9v3l.5-.5v-2c0-1.7.1-3 .4-3.7.4-.9 1.1-1.6 2.1-2.1M164.3 30.9c0 .2-.1.4-.3.4-.2.1-.4 0-.5-.2l-7.9-10.4-3.3 3.3 11.9 15.8h.6V11.6l-.5.5v18.8M146 8.1l-3.3 3.3 8.9 11.7 3.3-3.3L146 8.1M134.8 3.8c.3 1.1.4 3.1.4 6.2v7.2l.5-.5V3.5c0-.2.1-.4.3-.4.2-.1.4 0 .5.2l5.4 7.1 3.3-3.3-4.9-6.5h-10.9V1c1.9 0 3.2.2 3.8.5.8.4 1.3 1.1 1.6 2.3M219.1 37.2c1.9-.8 3.7-2 5.1-3.5 1.5-1.5 2.6-3.5 3.5-5.8.8-2.3 1.3-4.9 1.3-7.7 0-1.7-.1-3.3-.4-4.8l-5 5v.3c0 4.3-.8 7.9-2.3 10.7-1.5 2.8-3.4 4.8-5.7 5.7-2.2 1-5.1 1.4-8.6 1.4h-1.6l-.5.5h1.1c3.2 0 5.8-.1 7.5-.3 1.8-.2 3.7-.7 5.6-1.5M194 1.9c.7.4 1.2 1.1 1.4 2.2.2 1 .3 3 .3 6.2v3.1l4.8-4.8V1.3c0-.2.2-.4.4-.4 1.5-.1 3-.1 4.5-.1 1 0 2 0 2.9.1l.5-.5c-.8 0-1.7-.1-2.6-.1-1.9 0-5.5.1-10.9.4l-6 .3v.5h.7c2-.1 3.4.1 4 .4M218.5 5.1c1.6 1.7 2.9 3.9 3.8 6.5.7 2.1 1.1 4.5 1.3 7.1l4.7-4.7c-.4-1.5-.9-2.8-1.6-4.1-1.5-2.9-3.9-5.3-7.1-7-2.4-1.3-5.4-2.1-9.2-2.4l-.6.5c1.2.2 2.3.4 3.2.7 2 .5 3.9 1.7 5.5 3.4M200.7 35.1c-.1-1.1-.2-3.7-.2-7.6V10.3l-4.8 4.8v14.2c0 3.3-.1 5.4-.3 6.4-.2 1-.7 1.8-1.4 2.3-.7.5-1.9.7-3.7.7h-1.2v.3h14.2l.7-.7c-.8-.1-1.3-.3-1.7-.5-1-.5-1.5-1.4-1.6-2.7M278.5 39h1.1v-1.1l-1.1 1.1M279.8 36.1l.6-8.4h-.6c-.7 2.8-1.7 5-2.8 6.6-1.3 1.7-2.6 2.9-4 3.4s-3.1.8-5.3.8h-2.9c-2.8 0-4.5-.5-5.2-1.4-.7-.9-1-3.7-1-8.5v-9.3c0-.2.2-.4.4-.4h4.3c1.7 0 3 .1 3.7.4.8.3 1.5.8 1.9 1.7.4.8.6 2.1.6 4.1h.5V12.6h-.5c0 1.8-.1 2.9-.4 3.6-.3.8-.9 1.4-1.8 1.8-.8.4-2.2.5-4.2.5H259c-.2 0-.4-.2-.4-.4V1.5c0-.2.2-.4.4-.4h5.4c2.8 0 4.8.2 6.1.5 1.3.3 2.5 1.1 3.4 2.3.9 1.1 1.7 3.1 2.3 5.7h.5l-.8-8.9h-27.2v.4c1.7 0 2.9.2 3.5.6.7.4 1.1 1.2 1.3 2.3.2 1 .3 3 .3 6v19.3c0 3.3-.1 5.4-.2 6.2-.2.9-.6 1.6-1.2 2.2-.7.6-2 .9-4.1.9h-.4v.4h28.9l3-2.9M305.8 1.6c.7.4 1.2 1.2 1.4 2.2.2.9.3 3 .3 6.1V15l4.8-4.8v-9c0-.2.2-.4.4-.4.9-.1 1.8-.1 2.5-.1 2.4 0 4.4.2 6 .7l.8-.8c-1.8-.3-4-.4-6.4-.4-2.2 0-5.2.1-8.9.3l-5.2.3v.5h.2c2.1-.2 3.5-.1 4.1.3M342 38.6c-2.2-.1-4.2-.8-5.8-2-1.7-1.3-4.1-3.9-7.1-7.9-3.6-4.8-6.2-7.7-7.8-8.4-.2-.1-.3-.3-.2-.5 0-.2.2-.3.4-.4 3.6-.4 6.3-1.5 8.1-3.3 1.8-1.7 2.7-3.8 2.7-6.3 0-2.1-.7-3.9-2.1-5.4-1.4-1.5-3.2-2.6-5.5-3.3l-1.2-.3-1 1c.9.4 1.6.9 2.1 1.5 1.4 1.7 2.2 4.1 2.2 6.9 0 1.6-.2 3-.6 4.2-.4 1.1-1 2.1-1.8 2.8-.8.7-1.7 1.3-2.9 1.6-1.2.4-2.6.6-4.1.7-1.6.1-3.1.1-4.5.2-.1 0-.2 0-.3-.1-.1-.1-.1-.2-.1-.3V12l-4.8 4.8v12.5c0 3.3-.1 5.4-.3 6.4-.2 1-.7 1.8-1.4 2.3-.7.5-1.9.7-3.7.7h-.8v.3h17.9v-.4H318c-1.9 0-3.2-.3-3.9-.8-.7-.5-1.2-1.3-1.3-2.4-.1-1-.2-3-.2-6.1v-8.7c0-.2.2-.4.4-.4h1.6c1.2 0 2 .2 2.6.6.5.4 1.5 1.4 2.8 3.1 1.3 1.6 2.6 3.4 3.9 5.1 3.7 5.4 6.6 8.8 8.4 10.1h10v-.5M362.2 1.6c.7.4 1.2 1.1 1.4 2.2.2.9.3 3 .3 6.1v1l4.8-4.8V1.5c0-.2.2-.4.4-.4h4.7l.4-.4h-16.4v.4h.2c2.2 0 3.6.1 4.2.5M376 .6l-.4.4h1.3c2.5 0 4.2.2 5.3.5 1.1.4 2.2 1.3 3.2 2.8.9 1.4 1.5 3.1 1.8 5.1h.5l-.3-8.9H376M377.8 17.3c-.9.9-2.5 1.3-5.1 1.3H369c-.2 0-.4-.2-.4-.4V7.9l-4.8 4.8v16.6c0 3.3-.1 5.4-.3 6.4-.2 1-.7 1.8-1.4 2.3-.7.5-2 .7-3.7.7h-.8v.3H375v-.4h-.9c-1.9 0-3.2-.3-3.9-.8-.7-.5-1.2-1.3-1.3-2.4-.2-1-.2-3-.2-6.1v-9.8c0-.2.2-.4.4-.4h3.7c2 0 3.4.2 4.1.6.8.4 1.3 1.2 1.7 2.2.3.9.5 2.2.5 3.7h.6v-13h-.6c0 2.3-.4 3.8-1.3 4.7M440.4.6h-4.9v.5c1.5.1 2.7.4 3.5.9l1.4-1.4M440.1 2.7c.5.5.9 1.1 1.1 1.8.3.9.4 2.5.4 4.8v13.4c0 3.1-.1 5.3-.3 6.8-.2 1.5-.8 2.9-1.8 4.3s-2.5 2.6-4.6 3.5c-2 .9-4.3 1.4-6.7 1.4-3.1 0-5.7-.7-7.6-2.1-1.9-1.4-3.1-3.1-3.5-5-.3-1.2-.4-3-.5-5.3l-4.4 4.4c.2 1.1.6 2.1 1 2.9 1 1.8 2.7 3.3 5 4.4 2.4 1.2 5.3 1.7 8.7 1.7 2.9 0 5.5-.5 7.7-1.4 2.2-.9 3.9-2.1 5.1-3.6 1.2-1.5 1.9-3 2.2-4.6.3-1.6.4-4.1.4-7.4V9.8c0-2.5.1-4.1.3-4.9.2-.9.8-1.8 1.7-2.5.9-.7 2.1-1.1 3.7-1.2V.6h-5.7l-2.2 2.1M416.4 22.3V10c0-3.3.1-5.4.3-6.3.2-1 .7-1.7 1.4-2.1.7-.4 2-.5 4-.5h.3V.6h-17V1h.4c2.1 0 3.4.2 4.1.6.7.4 1.2 1.1 1.4 2.2.2.9.3 3 .3 6.1v16.2c0 1.1.1 2.1.2 3.1l4.6-4.6v-2.3M471.6 1.6c.7.4 1.2 1.1 1.4 2.2.2.9.3 3 .3 6.1v17.4l4.8-4.8V10c0-3.3.1-5.4.3-6.3.2-1 .7-1.7 1.4-2.1.7-.4 2-.5 4-.5h1.3V.6h-18V1h.4c2.1.1 3.4.2 4.1.6M499.3 28.3c-.9 3-1.8 5.2-2.9 6.6-1.1 1.5-2.3 2.5-3.5 2.9-1.2.4-3.1.7-5.5.7h-3c-2.4 0-3.9-.2-4.6-.7-.8-.5-1.3-1.1-1.5-2-.2-.7-.2-2.5-.2-5.4v-6.3l-4.8 4.8v.2c0 3.3-.1 5.4-.3 6.4-.2 1-.7 1.8-1.4 2.3-.7.5-2 .7-3.7.7h-.7v.5h32.5l.3-10.7h-.7M105 115.5l-3.3 3.2c.1.1.2.1.3.2h10v-.5c-2.2-.1-4.2-.8-5.8-2-.4-.2-.8-.5-1.2-.9M99 108.6c-3.6-4.8-6.2-7.7-7.8-8.4-.2-.1-.3-.3-.2-.5 0-.2.2-.3.4-.4 3.6-.4 6.3-1.5 8.1-3.3 1.8-1.7 2.7-3.8 2.7-6.3 0-2.1-.7-3.9-2.1-5.4-.9-1-1.9-1.8-3.2-2.4l-1.9 2c1.1 1.7 1.7 3.8 1.7 6.3 0 1.6-.2 3-.6 4.2-.4 1.1-1 2.1-1.8 2.8-.8.7-1.7 1.3-2.9 1.6-1.2.4-2.6.6-4.1.7-1.5.1-3.1.1-4.5.2-.1 0-.2 0-.3-.1-.1-.1-.1-.2-.1-.3v-2.5l-4.8 4.8v7.8c0 3.3-.1 5.4-.3 6.4-.2 1-.7 1.8-1.4 2.3-.7.5-2 .7-3.7.7h-.8v.4h17.9v-.4h-1.4c-1.9 0-3.2-.3-3.9-.8-.7-.5-1.2-1.3-1.3-2.4-.2-1-.2-3-.2-6.1v-8.7c0-.2.2-.4.4-.4h1.6c1.2 0 2 .2 2.6.6.5.4 1.5 1.4 2.8 3.1 1.3 1.6 2.6 3.4 3.9 5.1 3 4.3 5.4 7.4 7.2 9.1l3.3-3.3c-1.6-1.7-3.3-3.8-5.3-6.4M82.3 95V81.2c0-.2.2-.4.4-.4.9-.1 1.8-.1 2.5-.1 4.5 0 7.5.8 9.1 2.4l1.5-1.5c-.4-.1-.8-.3-1.2-.4-2.3-.7-5.3-1-9-1-2.2 0-5.2.1-8.9.3l-5.2.3v.2h.2c2.1 0 3.4.2 4.1.6.7.4 1.2 1.2 1.4 2.2.2.9.3 3 .3 6.1v9.8l4.8-4.7M140 117.1c-.7-.9-1-3.7-1-8.5v-9.3c0-.2.2-.4.4-.4h4.3c1.7 0 3 .1 3.7.4.8.3 1.5.8 1.9 1.7.4.8.6 2.1.6 4.1h.5V92.5h-.4c0 1.8-.1 2.9-.4 3.6-.3.8-.9 1.4-1.8 1.8-.8.4-2.2.5-4.2.5h-4.2c-.2 0-.4-.2-.4-.4V81.5c0-.2.2-.4.4-.4h5.4c2.8 0 4.8.2 6.1.5 1.3.3 2.5 1.1 3.4 2.3.9 1.1 1.7 3.1 2.3 5.7h.5l-.8-8.9h-17.2l-5 5c.1 1.1.1 2.5.1 4.4v19.3c0 3.3-.1 5.4-.2 6.2-.2.9-.6 1.6-1.2 2.2-.7.6-2 .9-4.1.9h-.4v.4h13l.7-.7c-.9-.4-1.6-.7-2-1.3M157.4 114.3c-1.3 1.7-2.6 2.9-4 3.4s-3.1.8-5.3.8h-2.9c-.6 0-1.2 0-1.7-.1l-.5.6h17l.8-11.3h-.6c-.6 2.7-1.6 5-2.8 6.6M134 84l3.5-3.4h-8.3v.4c1.7 0 2.9.2 3.5.6.7.5 1.1 1.3 1.3 2.4M196.3 86.7c.1-.2.2-.3.4-.3s.3.1.4.3l1 2.4 3.4-3.4-2.4-5.6h-.5l-6.1 14.7.9-.9 2.9-7.2M214 115.1l-1.8-4.1-.6-1.3-3.6 3.6c.8 1.9.9 2.5.9 2.8 0 1-.4 1.7-1.3 2.1-.7.3-1.8.4-3.6.5v.4h14.5v-.5c-1.3-.2-2.2-.5-2.9-1-.6-.7-1.2-1.5-1.6-2.5M185.5 114.5c0-1.2.8-3.5 2.3-7.2l1-2.5c.1-.2.2-.3.4-.3h14.9c.2 0 .3.1.4.3l3 7.2 3.5-3.5-9-21.6-3.4 3.4 5.5 13.2c.1.1 0 .3 0 .4-.1.1-.2.2-.4.2h-13.9c-.1 0-.3-.1-.4-.2-.1-.1-.1-.3 0-.4l2.8-6.7-.9.9-3.9 9.4c-.8 1.9-1.3 3.1-1.4 3.3-1.2 3.2-2.3 5.2-3.2 6.2-.9 1-2.1 1.6-3.8 1.9v.5h10.8v-.4c-1.2-.1-2.1-.4-2.9-1-.9-.7-1.4-1.8-1.4-3.1M239.5 83c-1.6 1.7-2.4 3.8-2.4 6.2 0 1.7.4 3.4 1.3 5l.1.1 3.2-3.2c-1-1.2-1.6-2.6-1.6-4.3 0-1.6.6-3.1 1.7-4.5 1.2-1.4 3-2.1 5.5-2.1 1.5 0 2.9.3 4.2.9l.4-.4c-.1-.1-.3-.1-.4-.2-1.4-.5-2.9-.8-4.5-.8-2.8 0-5.1.9-6.9 2.5l-.6.8M258 90h.5v-9.4h-.4c-.2 1.2-.7 2.3-1.6 3.3-.1.1-.2.2-.3.2-.1 0-.3 0-.3-.1-1-1.1-1.9-1.9-2.8-2.5l-.4.4c.5.3 1 .7 1.5 1.2 1.7 1.7 3.1 4 3.8 6.9M257.1 99.8c-1.5-.9-4-2.1-7.3-3.6-3.4-1.5-5.8-2.9-7.3-4.2l-3.4 3.3c.8 1.1 1.7 1.9 2.9 2.7 1.6 1 4 2.2 7.1 3.5 3.6 1.5 6.1 3 7.4 4.3 1.4 1.4 2.1 3.2 2.1 5.3 0 2.1-.8 3.9-2.4 5.6-1.6 1.7-3.9 2.5-6.7 2.5-6.3 0-10.3-4.2-12-12.3h-.2l-.5.5v11.3h.6c.3-1.5.8-2.7 1.4-3.6.1-.1.2-.2.3-.2.1 0 .3.1.3.2 2.8 3.2 6.3 4.8 10.4 4.8 3.6 0 6.5-1 8.7-3 2.1-2 3.2-4.7 3.2-7.9 0-2-.4-3.9-1.3-5.4-.7-1.7-1.9-3-3.3-3.8M313.9 85.5c1.2 1.6 2.1 3.5 2.8 5.7l3.3-3.3c-.7-1-1.5-1.8-2.4-2.7-3.7-3.2-8.2-5-13.6-5.3l-.5.5c4.4.3 7.9 1.9 10.4 5.1M317 92.5c.5 2.2.7 4.6.7 7.3 0 6.4-1.3 11.2-4 14.5-2.6 3.3-6.3 4.9-10.8 4.9-4 0-7.2-1-9.7-2.9l-1.2 1.2c3 1.5 6.5 2.3 10.5 2.3 6.3 0 11.4-1.9 15.2-5.5 3.8-3.7 5.8-8.5 5.8-14.5 0-4.2-1-7.9-2.9-10.9l-3.6 3.6M291.3 114.2c-2.6-3.2-3.9-8.1-3.9-14.5 0-1.2 0-2.3.1-3.4l-5.8 5.8c.5 4.9 2.4 9 5.7 12.1 1.1 1 2.2 1.9 3.5 2.6l1.4-1.4c-.3-.3-.7-.7-1-1.2M291.3 85.4c2.5-3.1 6-4.8 10.5-4.9l.6-.6c-5.8 0-10.8 1.8-14.7 5.4-3.9 3.6-5.9 8.4-5.9 14.3v1l6.1-6.1c.4-3.8 1.6-6.9 3.4-9.1M357.5 86.7l-3.3 3.3 10.1 13.3 3.3-3.3-10.1-13.3M348.7 115.4c-.2-.8-.4-2.3-.4-4.6V95.9l-.5.5v14.4c0 2.4-.1 4-.3 4.6-.2.8-.9 1.4-2 2-1 .5-2.3.9-4.1 1.1v.5h7.1l1.7-1.7c-.7-.6-1.3-1.2-1.5-1.9M376.9 110.9c0 .2-.1.4-.3.4-.2.1-.4 0-.5-.2l-7.7-10.2-3.3 3.3 11.8 15.6h.6V92l-.5.5v18.4M342 81c1.9 0 3.2.2 3.8.5.7.3 1.3 1.1 1.6 2.3.3 1.1.4 3.1.4 6.2v4.8l.5-.5V83.5c0-.2.1-.4.3-.4.2-.1.4 0 .5.2l4.4 5.8 3.3-3.3-3.9-5.1H342v.3M350.3 119h4.9v-.4c-1.6 0-2.9-.3-3.8-.7l-1.1 1.1M370.2 81c1.4 0 2.6.2 3.7.6 1.2.4 2 1.1 2.4 1.9.4.8.6 2 .6 3.9v3.4l.5-.5v-2.4c0-1.8.1-3 .4-3.7.3-.8 1-1.5 2-2.1.9-.5 2.2-.8 3.7-1v-.5h-13.4v.4M404.5 106.9h-.6v11.7h.6c.3-1.5.8-2.7 1.4-3.6.1-.1.2-.2.3-.2.1 0 .3.1.3.2.8.9 1.6 1.7 2.5 2.3l.4-.4c-2.2-2.1-4-5.4-4.9-10M426.4 101.7l-3.5 3.5c.2.2.5.4.7.6 1.4 1.4 2.1 3.2 2.1 5.3 0 2.1-.8 3.9-2.4 5.6-1.6 1.7-3.9 2.5-6.7 2.5-2.3 0-4.3-.6-6-1.7l-.4.4c2 1.2 4.3 1.8 6.9 1.8 3.6 0 6.5-1 8.7-3 2.1-2 3.2-4.7 3.2-7.9 0-2-.4-3.9-1.3-5.4-.5-.6-.9-1.2-1.3-1.7M404.1 89.2c0 1.7.4 3.4 1.3 5 .9 1.5 2.1 2.8 3.6 3.8 1.6 1 4 2.2 7.1 3.5 2.4 1 4.4 2 5.8 3l3.7-3.7c-.5-.4-.9-.8-1.5-1.1-1.5-.9-4-2.1-7.3-3.6-3.6-1.6-6.1-3.1-7.5-4.4-1.5-1.3-2.2-3-2.2-4.9 0-1.6.6-3.1 1.7-4.5 1.2-1.4 3-2.1 5.5-2.1 2.6 0 4.8.9 6.8 2.7 1.8 1.7 3.2 4 3.9 7h.5v-9.4h-.4c-.2 1.2-.7 2.3-1.6 3.3-.1.1-.2.2-.3.2-.1 0-.3 0-.3-.1-1.5-1.6-3-2.7-4.3-3.2-1.4-.5-2.9-.8-4.5-.8-2.8 0-5.2.9-7.1 2.7-1.9 1.7-2.9 4-2.9 6.6"/></svg>